<?xml version="1.0" encoding="UTF-8" standalone="no"?>
<svg width="198px" height="208px" viewBox="0 0 198 208" version="1.1" xmlns="http://www.w3.org/2000/svg" xmlns:xlink="http://www.w3.org/1999/xlink" xmlns:sketch="http://www.bohemiancoding.com/sketch/ns">
    <title>Slice 1</title>
    <description>Created with Sketch (http://www.bohemiancoding.com/sketch)</description>
    <defs>
        <radialGradient cx="34.0668403%" cy="30.4926215%" fx="34.0668403%" fy="30.4926215%" r="109.581029%" id="radialGradient-1">
            <stop stop-color="#F1F1F1" stop-opacity="0.0120346967" offset="0%"></stop>
            <stop stop-color="#000000" stop-opacity="0.5" offset="100%"></stop>
        </radialGradient>
        <path d="M23.4436386,201.34884 C23.9970322,205.547338 27.4710975,208.340053 31.2103617,207.58434 L190.889657,174.572285 C194.814812,173.743466 197.607655,169.947281 197.120879,166.092449 L174.507693,6.41676495 C173.909079,2.60730629 170.287817,-0.127593559 166.419477,0.307228902 L6.29041913,18.0205013 C2.47270593,18.4359029 -0.172915625,22.1742627 0.380690595,26.3743742 L23.4436386,201.34884 Z M23.4436386,201.34884" id="path-2"></path>
    </defs>
    <g id="Page 1" stroke="none" stroke-width="1" fill="none" fill-rule="evenodd">
        <g id="Group">
            <use id="Rectangle 1" fill="#FFFFFF" xlink:href="#path-2"></use>
            <use id="Rectangle 1-1" fill="url(#radialGradient-1)" xlink:href="#path-2"></use>
            <path d="M60.4037806,80.9217022 L54.8033601,81.7350028 L53.79402,74.0866231 L59.3958243,73.2951201 L60.4037806,80.9217022 Z M46.6654626,94.5463865 L46.046355,89.8285547 L61.279503,87.5672824 L66.1549036,124.903921 C66.7062955,129.163423 66.2248584,132.601012 64.712138,135.21946 C63.2006073,137.841815 60.7786779,139.444768 57.447215,140.024718 L49.7641031,141.360147 L49.095757,136.202776 L56.1771713,134.990239 C57.9946887,134.678641 59.2696483,133.759451 60.0017919,132.233736 C60.7342517,130.7092 60.9233341,128.578396 60.5685545,125.840475 L56.2972308,93.0946329 L46.6654626,94.5463865 Z M110.379618,73.6120566 L96.0664331,75.715067 L101.682706,118.256369 L95.4745934,119.305113 L89.8543019,76.6254387 L75.5245213,78.7199407 L74.7912051,73.1985957 L109.644931,68.1921462 L110.379618,73.6120566 Z M137.035015,87.8204282 L127.42727,89.3349992 L125.881073,77.9097416 L135.484773,76.4554461 L137.035015,87.8204282 Z M140.236405,111.704778 L130.623844,113.34447 L129.09727,101.811543 L138.70814,100.231692 L140.236405,111.704778 Z M140.236405,111.704778" id="jT:" fill="#3AAEED"></path>
        </g>
    </g>
</svg>